<svg width="480" height="672" xmlns="http://www.w3.org/2000/svg" xmlns:xlink="http://www.w3.org/1999/xlink" overflow="hidden"><g><rect x="0" y="0" width="480" height="672" fill="#FFFFFF"/><rect x="87.5001" y="300.5" width="384" height="288" stroke="#000000" stroke-width="1.33333" stroke-miterlimit="8" fill="#FFFFFF"/><text font-family="Cambria Math,Cambria Math_MSFontService,sans-serif" font-weight="400" font-size="32" transform="translate(30.4019 451)">𝑎</text><text font-family="Cambria Math,Cambria Math_MSFontService,sans-serif" font-weight="400" font-size="32" transform="translate(267.197 625)">𝑏</text><path d="M0.5-4.22532e-07 0.500099 117.569-0.499901 117.569-0.5 4.22532e-07ZM4.0001 116.235 0.000104987 124.235-3.9999 116.235Z" transform="matrix(1 0 0 -1 41.5001 425.735)"/><path d="M0.5-4.35312e-07 0.500099 113.921-0.499901 113.921-0.5 4.35312e-07ZM4.0001 112.588 0.000104987 120.588-3.9999 112.588Z" transform="matrix(-1 0 0 1 41.5002 468.5)"/><path d="M294.5 619 462.422 619 462.422 620 294.5 620ZM461.088 615.5 469.088 619.5 461.088 623.5Z"/><path d="M259.088 620 91.1666 620 91.1666 619 259.088 619ZM92.5 623.5 84.5 619.5 92.5 615.5Z"/><path d="M0.355674-0.563862 207.011 129.791 206.3 130.919-0.355674 0.563862ZM207.662 126.261 212.295 133.912 203.394 133.027Z" fill="#FF0000" transform="matrix(1 0 0 -1 180.5 434.412)"/><path d="M390.856 299.936 465.858 347.259 465.146 348.386 390.144 301.064ZM466.509 343.728 471.14 351.38 462.24 350.494Z" fill="#00B050"/><path d="M86.5001 434.5 308.715 434.5" stroke="#000000" stroke-miterlimit="8" stroke-dasharray="4 3" fill="none" fill-rule="evenodd"/><path d="M218.781 410.856C227.645 415.349 231.245 426.064 226.823 434.79" stroke="#000000" stroke-miterlimit="8" fill="none" fill-rule="evenodd"/><text font-family="Cambria Math,Cambria Math_MSFontService,sans-serif" font-weight="400" font-size="27" transform="translate(235.937 421)">𝛼</text><path d="M180.5 434.5 180.5 588.588" stroke="#000000" stroke-miterlimit="8" stroke-dasharray="4 3" fill="none" fill-rule="evenodd"/><text font-family="Cambria Math,Cambria Math_MSFontService,sans-serif" font-weight="400" font-size="21" transform="translate(69.4051 438)">𝑥</text><rect x="87.5001" y="12.5001" width="384" height="288" stroke="#000000" stroke-width="1.33333" stroke-miterlimit="8" fill="none"/><path d="M0.357592-0.562648 75.181 46.9915 74.4658 48.1168-0.357592 0.562648ZM75.8436 43.4631 80.4499 51.1301 71.5525 50.2149Z" fill="#00B050" transform="matrix(1 0 0 -1 391.5 301.63)"/></g></svg>