<svg width="768" height="720" xmlns="http://www.w3.org/2000/svg" xmlns:xlink="http://www.w3.org/1999/xlink" overflow="hidden"><g><rect x="0" y="0" width="768" height="720" fill="#FFFFFF"/><rect x="134.5" y="135.5" width="628" height="472" stroke="#000000" stroke-width="1.33333" stroke-miterlimit="8" fill="#FFFFFF"/><text font-family="Cambria Math,Cambria Math_MSFontService,sans-serif" font-weight="400" font-size="32" transform="translate(49.3757 374)">𝑎</text><text font-family="Cambria Math,Cambria Math_MSFontService,sans-serif" font-weight="400" font-size="32" transform="translate(440.314 107)">𝑏</text><path d="M0.5-2.58113e-07 0.500102 196.707-0.499898 196.707-0.5 2.58113e-07ZM4.0001 195.374 0.000104987 203.374-3.9999 195.374Z" transform="matrix(1 0 0 -1 58.5001 340.874)"/><path d="M0.5-5.3184e-07 0.500203 190.737-0.499797 190.737-0.5 5.3184e-07ZM4.0002 189.403 0.000209974 197.403-3.9998 189.403Z" transform="matrix(-1 0 0 1 58.5003 409.5)"/><path d="M476.5 105 755.635 105 755.635 106 476.5 106ZM754.302 101.5 762.302 105.5 754.302 109.5Z"/><path d="M419.302 106 140.167 106 140.167 105 419.302 105ZM141.5 109.5 133.5 105.5 141.5 101.5Z"/><path d="M0.355674-0.563862 342.244 215.094 341.533 216.221-0.355674 0.563862ZM342.895 211.563 347.527 219.214 338.627 218.329Z" fill="#FF0000" transform="matrix(1 0 0 -1 286.5 354.714)"/><path d="M634.993 137.051 758.317 272.367 757.332 273.266 634.007 137.949ZM759.882 269.136 762.315 277.744 753.97 274.525Z" fill="#FF0000"/><path d="M0.358538-0.562045 513.949 327.066 513.232 328.19-0.358538 0.562045ZM514.618 323.539 519.211 331.214 510.315 330.284Z" fill="#FF0000" transform="matrix(-1 0 0 1 762.711 275.5)"/><path d="M231.5 589.5C231.5 587.291 233.291 585.5 235.5 585.5 237.709 585.5 239.5 587.291 239.5 589.5 239.5 591.709 237.709 593.5 235.5 593.5 233.291 593.5 231.5 591.709 231.5 589.5Z" stroke="#FF0000" stroke-width="1.33333" stroke-miterlimit="8" fill="#FF0000" fill-rule="evenodd"/><path d="M219.5 579.5C219.5 577.291 221.291 575.5 223.5 575.5 225.709 575.5 227.5 577.291 227.5 579.5 227.5 581.709 225.709 583.5 223.5 583.5 221.291 583.5 219.5 581.709 219.5 579.5Z" stroke="#FF0000" stroke-width="1.33333" stroke-miterlimit="8" fill="#FF0000" fill-rule="evenodd"/><path d="M209.5 571.5C209.5 569.291 211.067 567.5 213 567.5 214.933 567.5 216.5 569.291 216.5 571.5 216.5 573.709 214.933 575.5 213 575.5 211.067 575.5 209.5 573.709 209.5 571.5Z" stroke="#FF0000" stroke-width="1.33333" stroke-miterlimit="8" fill="#FF0000" fill-rule="evenodd"/><path d="M133.5 354.5 497.268 354.5" stroke="#000000" stroke-miterlimit="8" stroke-dasharray="4 3" fill="none" fill-rule="evenodd"/><path d="M349.595 315.789C364.105 323.143 369.999 340.684 362.76 354.968" stroke="#000000" stroke-miterlimit="8" fill="none" fill-rule="evenodd"/><text font-family="Cambria Math,Cambria Math_MSFontService,sans-serif" font-weight="400" font-size="27" transform="translate(384.89 327)">𝛼</text><path d="M286.5 354.5 286.5 606.743" stroke="#000000" stroke-miterlimit="8" stroke-dasharray="4 3" fill="none" fill-rule="evenodd"/><text font-family="Cambria Math,Cambria Math_MSFontService,sans-serif" font-weight="400" font-size="21" transform="translate(98.492 357)">𝑥</text><text font-family="Cambria Math,Cambria Math_MSFontService,sans-serif" font-weight="400" font-size="15" transform="translate(109.012 361)">𝑆</text><text font-family="Cambria Math,Cambria Math_MSFontService,sans-serif" font-weight="400" font-size="21" transform="translate(276.775 633)">𝑦</text><text font-family="Cambria Math,Cambria Math_MSFontService,sans-serif" font-weight="400" font-size="15" transform="translate(287.522 637)">𝑆</text><path d="M588.5 255.5 588.5 606.805" stroke="#000000" stroke-miterlimit="8" stroke-dasharray="4 3" fill="none" fill-rule="evenodd"/><path d="M139.5 255.5 588.621 255.5" stroke="#000000" stroke-miterlimit="8" stroke-dasharray="4 3" fill="none" fill-rule="evenodd"/><text font-family="Cambria Math,Cambria Math_MSFontService,sans-serif" font-weight="400" font-size="21" transform="translate(573.983 633)">𝑦</text><text font-family="Cambria Math,Cambria Math_MSFontService,sans-serif" font-weight="400" font-size="15" transform="translate(585.336 637)">𝑂</text><text font-family="Cambria Math,Cambria Math_MSFontService,sans-serif" font-weight="400" font-size="21" transform="translate(97.0686 255)">𝑥</text><text font-family="Cambria Math,Cambria Math_MSFontService,sans-serif" font-weight="400" font-size="15" transform="translate(108.195 259)">𝑂</text><text font-family="Cambria Math,Cambria Math_MSFontService,sans-serif" font-weight="400" font-size="21" transform="translate(281.202 334)">𝑆</text><text font-family="Cambria Math,Cambria Math_MSFontService,sans-serif" font-weight="400" font-size="21" transform="translate(602.844 253)">𝑂</text></g></svg>