<svg width="480" height="384" xmlns="http://www.w3.org/2000/svg" xmlns:xlink="http://www.w3.org/1999/xlink" overflow="hidden"><g><rect x="0" y="0" width="480" height="384" fill="#FFFFFF"/><rect x="87.5001" y="12.5001" width="384" height="288" stroke="#000000" stroke-width="1.33333" stroke-miterlimit="8" fill="#FFFFFF"/><text font-family="Cambria Math,Cambria Math_MSFontService,sans-serif" font-weight="400" font-size="32" transform="translate(30.646 163)">𝑎</text><text font-family="Cambria Math,Cambria Math_MSFontService,sans-serif" font-weight="400" font-size="32" transform="translate(267.442 337)">𝑏</text><path d="M0.5-4.22532e-07 0.500099 117.569-0.499901 117.569-0.5 4.22532e-07ZM4.0001 116.235 0.000104987 124.235-3.9999 116.235Z" transform="matrix(1 0 0 -1 41.5001 137.735)"/><path d="M0.5-4.35312e-07 0.500099 113.921-0.499901 113.921-0.5 4.35312e-07ZM4.0001 112.588 0.000104987 120.588-3.9999 112.588Z" transform="matrix(-1 0 0 1 41.5002 180.5)"/><path d="M294.5 331 462.422 331 462.422 332 294.5 332ZM461.088 327.5 469.088 331.5 461.088 335.5Z"/><path d="M259.088 332 91.1666 332 91.1666 331 259.088 331ZM92.5 335.5 84.5 331.5 92.5 327.5Z"/><path d="M0.355674-0.563862 207.011 129.791 206.3 130.919-0.355674 0.563862ZM207.662 126.261 212.295 133.912 203.394 133.027Z" fill="#FF0000" transform="matrix(1 0 0 -1 180.5 146.412)"/><path d="M390.856 11.9362 465.858 59.2588 465.146 60.3864 390.144 13.0639ZM466.509 55.7282 471.14 63.3801 462.24 62.4941Z" fill="#00B050"/><path d="M87.5001 146.5 309.715 146.5" stroke="#000000" stroke-miterlimit="8" stroke-dasharray="4 3" fill="none" fill-rule="evenodd"/><path d="M219.025 122.856C227.889 127.349 231.49 138.064 227.067 146.79" stroke="#000000" stroke-miterlimit="8" fill="none" fill-rule="evenodd"/><text font-family="Cambria Math,Cambria Math_MSFontService,sans-serif" font-weight="400" font-size="27" transform="translate(236.181 133)">𝛼</text><path d="M180.5 146.5 180.5 300.588" stroke="#000000" stroke-miterlimit="8" stroke-dasharray="4 3" fill="none" fill-rule="evenodd"/><text font-family="Cambria Math,Cambria Math_MSFontService,sans-serif" font-weight="400" font-size="21" transform="translate(69.6492 150)">𝑥</text></g></svg>