<svg width="576" height="240" xmlns="http://www.w3.org/2000/svg" xmlns:xlink="http://www.w3.org/1999/xlink" overflow="hidden"><g><rect x="0" y="0" width="576" height="240" fill="#FFFFFF"/><path d="M41 217 553 217" stroke="#000000" stroke-width="2" stroke-miterlimit="8" fill="none" fill-rule="evenodd"/><path d="M0 0 28.8 19.2" stroke="#000000" stroke-miterlimit="8" fill="none" fill-rule="evenodd" transform="matrix(-1 0 0 1 139.3 217.5)"/><path d="M0 0 28.8 19.2" stroke="#000000" stroke-miterlimit="8" fill="none" fill-rule="evenodd" transform="matrix(-1 0 0 1 110.3 217.5)"/><path d="M0 0 28.8 19.2" stroke="#000000" stroke-miterlimit="8" fill="none" fill-rule="evenodd" transform="matrix(-1 0 0 1 81.3 217.5)"/><path d="M0 0 28.8 19.2" stroke="#000000" stroke-miterlimit="8" fill="none" fill-rule="evenodd" transform="matrix(-1 0 0 1 168.3 217.5)"/><path d="M0 0 28.8 19.2" stroke="#000000" stroke-miterlimit="8" fill="none" fill-rule="evenodd" transform="matrix(-1 0 0 1 52.3001 217.5)"/><path d="M0 0 28.8 19.2" stroke="#000000" stroke-miterlimit="8" fill="none" fill-rule="evenodd" transform="matrix(-1 0 0 1 196.3 217.5)"/><path d="M0 0 28.8 19.2" stroke="#000000" stroke-miterlimit="8" fill="none" fill-rule="evenodd" transform="matrix(-1 0 0 1 313.3 217.5)"/><path d="M0 0 28.8 19.2" stroke="#000000" stroke-miterlimit="8" fill="none" fill-rule="evenodd" transform="matrix(-1 0 0 1 284.3 217.5)"/><path d="M0 0 28.8 19.2" stroke="#000000" stroke-miterlimit="8" fill="none" fill-rule="evenodd" transform="matrix(-1 0 0 1 255.3 217.5)"/><path d="M0 0 28.8 19.2" stroke="#000000" stroke-miterlimit="8" fill="none" fill-rule="evenodd" transform="matrix(-1 0 0 1 342.3 217.5)"/><path d="M0 0 28.8 19.2" stroke="#000000" stroke-miterlimit="8" fill="none" fill-rule="evenodd" transform="matrix(-1 0 0 1 226.3 217.5)"/><path d="M0 0 28.8 19.2" stroke="#000000" stroke-miterlimit="8" fill="none" fill-rule="evenodd" transform="matrix(-1 0 0 1 371.3 217.5)"/><path d="M0 0 28.8 19.2" stroke="#000000" stroke-miterlimit="8" fill="none" fill-rule="evenodd" transform="matrix(-1 0 0 1 488.3 217.5)"/><path d="M0 0 28.8 19.2" stroke="#000000" stroke-miterlimit="8" fill="none" fill-rule="evenodd" transform="matrix(-1 0 0 1 459.3 217.5)"/><path d="M0 0 28.8 19.2" stroke="#000000" stroke-miterlimit="8" fill="none" fill-rule="evenodd" transform="matrix(-1 0 0 1 430.3 217.5)"/><path d="M0 0 28.8 19.2" stroke="#000000" stroke-miterlimit="8" fill="none" fill-rule="evenodd" transform="matrix(-1 0 0 1 516.3 217.5)"/><path d="M0 0 28.8 19.2" stroke="#000000" stroke-miterlimit="8" fill="none" fill-rule="evenodd" transform="matrix(-1 0 0 1 401.3 217.5)"/><path d="M0 0 28.8 19.2" stroke="#000000" stroke-miterlimit="8" fill="none" fill-rule="evenodd" transform="matrix(-1 0 0 1 545.3 217.5)"/><path d="M284.5 4.50005 284.5 217.62" stroke="#000000" stroke-width="1.33333" stroke-miterlimit="8" stroke-dasharray="5.33333 4" fill="none" fill-rule="evenodd"/><path d="M64.4568 33.3448 279.32 211.281 277.407 213.592 62.5433 35.6553ZM280.079 208.014 284.14 217.22 274.338 214.945Z" fill="#FF0000"/><path d="M0.942721-1.16674 226.843 181.36 224.957 183.693-0.942721 1.16674ZM227.561 178.083 231.733 187.24 221.905 185.084Z" fill="#FF0000" transform="matrix(1 0 0 -1 284.5 217.74)"/><path d="M226.535 170.136C231.774 144.149 257.087 127.329 283.074 132.568" stroke="#000000" stroke-miterlimit="8" fill="none" fill-rule="evenodd"/><path d="M285.402 133.06C311.117 126.618 337.186 142.241 343.628 167.956" stroke="#000000" stroke-miterlimit="8" fill="none" fill-rule="evenodd"/><text font-family="Cambria Math,Cambria Math_MSFontService,sans-serif" font-weight="400" font-size="32" transform="translate(227.83 125)">𝜃</text><text font-family="Cambria Math,Cambria Math_MSFontService,sans-serif" font-weight="400" font-size="32" transform="translate(319.857 122)">𝜃</text></g></svg>